<svg width="308" height="275" viewBox="0 0 308 275" fill="none" xmlns="http://www.w3.org/2000/svg">
<path fill-rule="evenodd" clip-rule="evenodd" d="M163.079 2.1537C188.336 -2.74389 214.668 0.959122 238.46 10.7478C264.133 21.3103 292.485 34.7091 303.807 60.052C315.085 85.2978 300.447 113.879 296.773 141.283C293.584 165.08 293.188 188.837 283.594 210.847C273.227 234.632 263.939 265.171 239.267 273.215C213.601 281.582 188.821 258.265 163.079 250.137C145.114 244.464 128.478 237.791 110.391 232.52C85.9593 225.399 57.3198 229.901 37.7665 213.616C16.6027 195.99 -4.51285 168.296 0.842136 141.283C6.44832 113.003 43.3307 104.41 63.4998 83.8041C78.0023 68.9876 86.8464 50.1838 102.879 37.0377C121.123 22.0781 139.915 6.64528 163.079 2.1537Z" fill="#FACC15"/>
</svg>
